<mxfile host="app.diagrams.net" modified="2023-10-29T17:44:44.877Z" agent="Mozilla/5.0 (Windows NT 10.0; Win64; x64; rv:109.0) Gecko/20100101 Firefox/119.0" etag="NjqnyuG_Bl4MrlB90PXL" version="22.0.8" type="google">
  <diagram name="Page-1" id="sWqkfUj6m_CCeIlrbYhG">
    <mxGraphModel grid="1" page="1" gridSize="10" guides="1" tooltips="1" connect="1" arrows="1" fold="1" pageScale="1" pageWidth="1169" pageHeight="827" math="0" shadow="0">
      <root>
        <mxCell id="0" />
        <mxCell id="1" parent="0" />
        <mxCell id="BI_7WRbAizhbpD3U7Y2d-21" value="" style="rounded=0;whiteSpace=wrap;html=1;movable=1;resizable=1;rotatable=1;deletable=1;editable=1;locked=0;connectable=1;rotation=-72;" vertex="1" parent="1">
          <mxGeometry x="471.27" y="369.16" width="540" height="56.06" as="geometry" />
        </mxCell>
        <mxCell id="BI_7WRbAizhbpD3U7Y2d-7" value="" style="group" vertex="1" connectable="0" parent="1">
          <mxGeometry x="600" y="590" width="110" height="110" as="geometry" />
        </mxCell>
        <mxCell id="BI_7WRbAizhbpD3U7Y2d-4" value="" style="ellipse;whiteSpace=wrap;html=1;aspect=fixed;" vertex="1" parent="BI_7WRbAizhbpD3U7Y2d-7">
          <mxGeometry x="10" width="110" height="110" as="geometry" />
        </mxCell>
        <mxCell id="BI_7WRbAizhbpD3U7Y2d-5" value="" style="ellipse;whiteSpace=wrap;html=1;aspect=fixed;" vertex="1" parent="BI_7WRbAizhbpD3U7Y2d-7">
          <mxGeometry x="31.15" y="21.15" width="68.85" height="68.85" as="geometry" />
        </mxCell>
        <mxCell id="NOyaYtedsD3umwQN0AoL-3" value="&lt;font style=&quot;font-size: 48px;&quot;&gt;B&lt;/font&gt;" style="text;html=1;strokeColor=none;fillColor=none;align=center;verticalAlign=middle;whiteSpace=wrap;rounded=0;" vertex="1" parent="BI_7WRbAizhbpD3U7Y2d-7">
          <mxGeometry x="35.58000000000004" y="40.57999999999993" width="60" height="30" as="geometry" />
        </mxCell>
        <mxCell id="NOyaYtedsD3umwQN0AoL-15" value="&lt;font style=&quot;font-size: 48px;&quot;&gt;y2&lt;/font&gt;" style="text;html=1;strokeColor=none;fillColor=none;align=center;verticalAlign=middle;whiteSpace=wrap;rounded=0;rotation=25;" vertex="1" parent="1">
          <mxGeometry x="880" y="30" width="60" height="30" as="geometry" />
        </mxCell>
        <mxCell id="mgE5DSdZSaWLGGEly6F8-1" value="" style="endArrow=classic;html=1;rounded=0;" edge="1" parent="1" source="NOyaYtedsD3umwQN0AoL-4">
          <mxGeometry width="50" height="50" relative="1" as="geometry">
            <mxPoint x="830" y="140" as="sourcePoint" />
            <mxPoint x="880" y="-10" as="targetPoint" />
          </mxGeometry>
        </mxCell>
        <mxCell id="mgE5DSdZSaWLGGEly6F8-2" value="" style="endArrow=classic;html=1;rounded=0;" edge="1" parent="1" source="NOyaYtedsD3umwQN0AoL-4">
          <mxGeometry width="50" height="50" relative="1" as="geometry">
            <mxPoint x="855" y="163" as="sourcePoint" />
            <mxPoint x="1010" y="230" as="targetPoint" />
          </mxGeometry>
        </mxCell>
        <mxCell id="mgE5DSdZSaWLGGEly6F8-4" value="&lt;font style=&quot;font-size: 48px;&quot;&gt;y1&lt;/font&gt;" style="text;html=1;strokeColor=none;fillColor=none;align=center;verticalAlign=middle;whiteSpace=wrap;rounded=0;rotation=0;" vertex="1" parent="1">
          <mxGeometry x="375.69" y="10" width="60" height="30" as="geometry" />
        </mxCell>
        <mxCell id="mgE5DSdZSaWLGGEly6F8-5" value="" style="endArrow=classic;html=1;rounded=0;" edge="1" parent="1">
          <mxGeometry width="50" height="50" relative="1" as="geometry">
            <mxPoint x="434.26000000000005" y="150" as="sourcePoint" />
            <mxPoint x="434.26000000000005" y="10" as="targetPoint" />
          </mxGeometry>
        </mxCell>
        <mxCell id="hN_NPj9hov84vUHAl6w_-6" value="" style="ellipse;whiteSpace=wrap;html=1;aspect=fixed;" vertex="1" parent="1">
          <mxGeometry x="769.8522167487685" y="94.015625" width="110.14778325123152" height="110.14778325123152" as="geometry" />
        </mxCell>
        <mxCell id="hN_NPj9hov84vUHAl6w_-5" value="" style="ellipse;whiteSpace=wrap;html=1;aspect=fixed;" vertex="1" parent="1">
          <mxGeometry x="791.0344827586207" y="117.375" width="67.78325123152709" height="67.78325123152709" as="geometry" />
        </mxCell>
        <mxCell id="NOyaYtedsD3umwQN0AoL-4" value="&lt;font style=&quot;font-size: 48px;&quot;&gt;C&lt;/font&gt;" style="text;html=1;strokeColor=none;fillColor=none;align=center;verticalAlign=middle;whiteSpace=wrap;rounded=0;" vertex="1" parent="1">
          <mxGeometry x="794.9300000000001" y="139.75" width="60" height="30" as="geometry" />
        </mxCell>
        <mxCell id="NOyaYtedsD3umwQN0AoL-12" value="" style="endArrow=classic;html=1;rounded=0;exitX=0.584;exitY=0.342;exitDx=0;exitDy=0;exitPerimeter=0;" edge="1" parent="1" source="NOyaYtedsD3umwQN0AoL-4">
          <mxGeometry width="50" height="50" relative="1" as="geometry">
            <mxPoint x="820" y="154.25" as="sourcePoint" />
            <mxPoint x="1070" y="150" as="targetPoint" />
          </mxGeometry>
        </mxCell>
        <mxCell id="NOyaYtedsD3umwQN0AoL-13" value="&lt;font style=&quot;font-size: 48px;&quot;&gt;F3&lt;/font&gt;" style="text;html=1;strokeColor=none;fillColor=none;align=center;verticalAlign=middle;whiteSpace=wrap;rounded=0;" vertex="1" parent="1">
          <mxGeometry x="950" y="109.75" width="60" height="30" as="geometry" />
        </mxCell>
        <mxCell id="NOyaYtedsD3umwQN0AoL-14" value="&lt;font style=&quot;font-size: 48px;&quot;&gt;x2&lt;/font&gt;" style="text;html=1;strokeColor=none;fillColor=none;align=center;verticalAlign=middle;whiteSpace=wrap;rounded=0;rotation=25;" vertex="1" parent="1">
          <mxGeometry x="920" y="220" width="60" height="30" as="geometry" />
        </mxCell>
        <mxCell id="mgE5DSdZSaWLGGEly6F8-3" value="&lt;font style=&quot;font-size: 48px;&quot;&gt;x1&lt;/font&gt;" style="text;html=1;strokeColor=none;fillColor=none;align=center;verticalAlign=middle;whiteSpace=wrap;rounded=0;rotation=0;" vertex="1" parent="1">
          <mxGeometry x="525.69" y="164.09" width="60" height="30" as="geometry" />
        </mxCell>
        <mxCell id="mgE5DSdZSaWLGGEly6F8-6" value="" style="endArrow=classic;html=1;rounded=0;" edge="1" parent="1">
          <mxGeometry width="50" height="50" relative="1" as="geometry">
            <mxPoint x="435.69" y="151" as="sourcePoint" />
            <mxPoint x="600" y="150.55" as="targetPoint" />
          </mxGeometry>
        </mxCell>
        <mxCell id="RizHY12KlmX4imDBID7A-3" value="" style="endArrow=none;html=1;rounded=0;entryX=0.418;entryY=0.342;entryDx=0;entryDy=0;entryPerimeter=0;" edge="1" parent="1" target="NOyaYtedsD3umwQN0AoL-4">
          <mxGeometry width="50" height="50" relative="1" as="geometry">
            <mxPoint x="660" y="150.76999999999998" as="sourcePoint" />
            <mxPoint x="760" y="150.76999999999998" as="targetPoint" />
          </mxGeometry>
        </mxCell>
        <mxCell id="RizHY12KlmX4imDBID7A-4" value="&lt;font style=&quot;font-size: 48px;&quot;&gt;F&lt;/font&gt;" style="text;html=1;strokeColor=none;fillColor=none;align=center;verticalAlign=middle;whiteSpace=wrap;rounded=0;" vertex="1" parent="1">
          <mxGeometry x="600" y="139.75" width="60" height="30" as="geometry" />
        </mxCell>
        <mxCell id="RizHY12KlmX4imDBID7A-2" value="" style="endArrow=none;html=1;rounded=0;exitX=0.407;exitY=0.314;exitDx=0;exitDy=0;exitPerimeter=0;" edge="1" parent="1" source="NOyaYtedsD3umwQN0AoL-3">
          <mxGeometry width="50" height="50" relative="1" as="geometry">
            <mxPoint x="640" y="370" as="sourcePoint" />
            <mxPoint x="660" y="150" as="targetPoint" />
          </mxGeometry>
        </mxCell>
        <mxCell id="RizHY12KlmX4imDBID7A-5" value="&lt;font style=&quot;font-size: 48px;&quot;&gt;BF&lt;/font&gt;" style="text;html=1;strokeColor=none;fillColor=none;align=center;verticalAlign=middle;whiteSpace=wrap;rounded=0;" vertex="1" parent="1">
          <mxGeometry x="585.69" y="350" width="60" height="30" as="geometry" />
        </mxCell>
      </root>
    </mxGraphModel>
  </diagram>
</mxfile>
